<?xml version="1.0" encoding="UTF-8"?>
<svg version="1.1" xmlns="http://www.w3.org/2000/svg" width="281" height="231">
<path d="M0 0 C0 0.66 0 1.32 0 2 C0.79664063 2.309375 0.79664063 2.309375 1.609375 2.625 C5.00773436 4.57961192 7.51055928 7.22123717 10.25 10 C10.80429688 10.5465625 11.35859375 11.093125 11.9296875 11.65625 C16 15.7466133 16 15.7466133 16 18 C16.66 18 17.32 18 18 18 C29.96916544 38.54837118 37.63328014 57.2085993 32.8125 81.3125 C31.84966895 84.79451915 30.88213182 87.19521917 29 90.3125 C24.39714613 92.9016053 20.1538532 92.68510435 15 92 C10.6311288 90.48039263 8.53136595 87.55813491 6.2421875 83.68359375 C4.69484382 80.34074751 3.65766207 76.90095889 2.625 73.375 C-2.11127772 57.2407588 -10.29434591 41.58359239 -25.41015625 33.08203125 C-40.98862365 25.00004645 -57.70754569 21.36633208 -75 26 C-83.91845432 28.90265483 -92.25447748 32.32569114 -99.3359375 38.6171875 C-101 40 -101 40 -104 41 C-105.06427298 42.84655234 -105.06427298 42.84655234 -106 45 C-106.92340445 46.34313374 -107.86203888 47.67587475 -108.8125 49 C-118.22059431 62.90460998 -120.19115765 78.54170367 -117.31640625 94.88671875 C-112.87542666 110.16295146 -104.01598109 123.15373307 -90 131 C-68.83827304 142.52988336 -47.56106548 144.34453247 -24.4375 137.875 C-12.22316992 134.17863203 -1.1772135 128.42351623 8.86328125 120.56640625 C11 119 11 119 14 118 C14 117.34 14 116.68 14 116 C15.29296875 114.765625 15.29296875 114.765625 17.1875 113.25 C22.08377475 109.11849348 26.31560115 104.45329635 30.60620117 99.71191406 C31.14607666 99.11862305 31.68595215 98.52533203 32.2421875 97.9140625 C32.7254248 97.3773291 33.20866211 96.8405957 33.70654297 96.28759766 C35.72010727 94.28315482 37.03183234 93.99584796 39.875 93.625 C43 94 43 94 45.375 95.75 C48.80270062 102.60540124 47.49872179 110.07601642 45.5 117.25 C36.41663941 143.8945244 17.03915891 168.86109313 -7.8671875 182.4765625 C-17.22393763 187.02660309 -26.85126067 190.64348158 -37 193 C-37.77085937 193.19335938 -38.54171875 193.38671875 -39.3359375 193.5859375 C-67.38519439 200.0158336 -94.83325173 192.42336493 -119 178 C-122.85343522 175.5670302 -126.46827307 172.87971581 -130 170 C-130.72316406 169.41605469 -131.44632813 168.83210937 -132.19140625 168.23046875 C-152.73186254 150.96401309 -165.64379476 125.4545087 -168.68359375 98.97265625 C-170.86319992 71.60648989 -165.26640565 44.00538079 -148.3125 21.8125 C-127.43088743 -2.5285414 -102.1345721 -17.16194195 -69.7578125 -19.88671875 C-45.91313701 -20.86617426 -18.57724858 -16.23163639 0 0 Z " fill="#41B8FE" transform="translate(201,28)"/>
<path d="M0 0 C0 0.66 0 1.32 0 2 C0.79664063 2.309375 0.79664063 2.309375 1.609375 2.625 C5.00773436 4.57961192 7.51055928 7.22123717 10.25 10 C10.80429688 10.5465625 11.35859375 11.093125 11.9296875 11.65625 C16 15.7466133 16 15.7466133 16 18 C16.66 18 17.32 18 18 18 C29.96916544 38.54837118 37.63328014 57.2085993 32.8125 81.3125 C31.84966895 84.79451915 30.88213182 87.19521917 29 90.3125 C24.39714613 92.9016053 20.1538532 92.68510435 15 92 C10.6311288 90.48039263 8.53136595 87.55813491 6.2421875 83.68359375 C4.69484382 80.34074751 3.65766207 76.90095889 2.625 73.375 C-2.11127772 57.2407588 -10.29434591 41.58359239 -25.41015625 33.08203125 C-40.98862365 25.00004645 -57.70754569 21.36633208 -75 26 C-83.91845432 28.90265483 -92.25447748 32.32569114 -99.3359375 38.6171875 C-101 40 -101 40 -104 41 C-105.06427298 42.84655234 -105.06427298 42.84655234 -106 45 C-106.92340445 46.34313374 -107.86203888 47.67587475 -108.8125 49 C-118.22059431 62.90460998 -120.19115765 78.54170367 -117.31640625 94.88671875 C-112.87542666 110.16295146 -104.01598109 123.15373307 -90 131 C-68.83827304 142.52988336 -47.56106548 144.34453247 -24.4375 137.875 C-12.22316992 134.17863203 -1.1772135 128.42351623 8.86328125 120.56640625 C11 119 11 119 14 118 C14 117.34 14 116.68 14 116 C15.29296875 114.765625 15.29296875 114.765625 17.1875 113.25 C22.08377475 109.11849348 26.31560115 104.45329635 30.60620117 99.71191406 C31.14607666 99.11862305 31.68595215 98.52533203 32.2421875 97.9140625 C32.7254248 97.3773291 33.20866211 96.8405957 33.70654297 96.28759766 C35.72010727 94.28315482 37.03183234 93.99584796 39.875 93.625 C43 94 43 94 45.375 95.75 C48.80270062 102.60540124 47.49872179 110.07601642 45.5 117.25 C36.41663941 143.8945244 17.03915891 168.86109313 -7.8671875 182.4765625 C-17.22393763 187.02660309 -26.85126067 190.64348158 -37 193 C-37.77085937 193.19335938 -38.54171875 193.38671875 -39.3359375 193.5859375 C-67.38519439 200.0158336 -94.83325173 192.42336493 -119 178 C-122.85343522 175.5670302 -126.46827307 172.87971581 -130 170 C-130.72316406 169.41605469 -131.44632813 168.83210937 -132.19140625 168.23046875 C-152.73186254 150.96401309 -165.64379476 125.4545087 -168.68359375 98.97265625 C-170.86319992 71.60648989 -165.26640565 44.00538079 -148.3125 21.8125 C-127.43088743 -2.5285414 -102.1345721 -17.16194195 -69.7578125 -19.88671875 C-45.91313701 -20.86617426 -18.57724858 -16.23163639 0 0 Z M-91 -11 C-92.00160156 -10.73316406 -93.00320312 -10.46632813 -94.03515625 -10.19140625 C-116.05657417 -3.66331793 -135.84608367 11.6361333 -148 31 C-148.58394531 31.88945313 -149.16789062 32.77890625 -149.76953125 33.6953125 C-156.35640314 44.22856733 -161.09099567 56.67824478 -163 69 C-163.10957031 69.65097656 -163.21914062 70.30195312 -163.33203125 70.97265625 C-167.13405387 98.09375094 -159.65493809 126.01118234 -143.75 148.125 C-128.1402283 168.13077824 -107.46520113 181.59182961 -83 188 C-81.65615234 188.36931641 -81.65615234 188.36931641 -80.28515625 188.74609375 C-64.04125985 192.46704948 -46.90116418 190.06399664 -31 186 C-29.89269531 185.72285156 -28.78539062 185.44570312 -27.64453125 185.16015625 C-14.77213484 181.3905071 -3.01460359 173.76277814 7 165 C7.7321875 164.41089844 8.464375 163.82179687 9.21875 163.21484375 C25.11256111 150.03529264 37.95606026 129.34476899 42 109 C42.06548492 107.41788427 42.08578381 105.83329919 42.0625 104.25 C42.05347656 103.45078125 42.04445312 102.6515625 42.03515625 101.828125 C42.02355469 101.22484375 42.01195312 100.6215625 42 100 C40.68 99.67 39.36 99.34 38 99 C37.57291748 99.4626123 37.14583496 99.92522461 36.70581055 100.40185547 C13.94473135 124.99274092 -10.53117286 144.86134811 -45.58984375 146.25390625 C-69.50928418 146.8821628 -88.6504405 141.5136924 -106.3671875 124.76171875 C-112.6410172 118.308335 -116.53580601 111.19577603 -120 103 C-120.36222656 102.15308594 -120.72445312 101.30617188 -121.09765625 100.43359375 C-125.74678503 86.96193222 -124.5565376 68.98698083 -119 56 C-116.92660081 51.7979779 -114.62507722 47.87953891 -112 44 C-111.56171875 43.34515625 -111.1234375 42.6903125 -110.671875 42.015625 C-106.08423215 35.99088921 -99.28105003 32.0563477 -93 28 C-92.21882813 27.47148438 -91.43765625 26.94296875 -90.6328125 26.3984375 C-87.04089015 24.49056183 -83.34410669 23.46147259 -79.4375 22.375 C-78.68275391 22.1584375 -77.92800781 21.941875 -77.15039062 21.71875 C-59.54469183 16.69298224 -41.22656898 18.28311252 -25.08203125 27.12109375 C-7.74261554 37.69176416 1.73672432 52.65145554 7.640625 71.703125 C9.91587558 80.17275389 9.91587558 80.17275389 15 87 C18.06517121 87.66634157 20.92581963 87.61368899 24 87 C30.81861518 79.54213964 28.65611029 64.41795834 28.27392578 55.08251953 C27.65290945 48.09414855 25.12997168 42.20251268 22 36 C21.52046875 34.989375 21.0409375 33.97875 20.546875 32.9375 C10.24755813 12.56522487 -8.18979631 -2.05271866 -29.4375 -9.75 C-30.95151762 -10.19078994 -32.47331903 -10.60529712 -34 -11 C-34.96808594 -11.27714844 -35.93617188 -11.55429687 -36.93359375 -11.83984375 C-54.07916103 -16.06298575 -74.02591757 -15.89514737 -91 -11 Z " fill="#26B1FC" transform="translate(201,28)"/>
<path d="M0 0 C7.52352165 5.79010226 13.09685125 14.36999153 14.44140625 23.87890625 C15.12836422 36.29699257 14.63056955 45.98491446 6.38671875 55.8671875 C0.75708263 61.68899996 -5.53287643 64.19560214 -13.55859375 64.87890625 C-19.3174375 64.86976523 -24.30295979 64.13454021 -28.55859375 59.87890625 C-29.5911625 55.66258386 -29.5911625 55.66258386 -28.55859375 52.87890625 C-25.91094233 50.5047008 -23.14582287 48.60450646 -20.16015625 46.67578125 C-16.78838589 44.34693085 -15.73764706 42.5951195 -14.74609375 38.62890625 C-14.52240343 34.1550998 -15.38849043 31.77012599 -17.55859375 27.87890625 C-20.53777621 24.79699336 -23.32277054 24.12328067 -27.55859375 23.87890625 C-32.01918555 24.36089554 -34.90755281 25.35524288 -38.43359375 28.19140625 C-42.26083745 33.03174387 -43.07868462 37.09758979 -42.93359375 43.19140625 C-41.81664136 51.19623171 -36.90572973 58.06637761 -30.55859375 62.87890625 C-21.90794444 68.11665849 -13.29357654 70.03504195 -3.3515625 71.31640625 C-0.55859375 71.87890625 -0.55859375 71.87890625 1.44140625 73.87890625 C1.87890625 77.25390625 1.87890625 77.25390625 1.44140625 80.87890625 C-4.64924275 86.91378007 -13.34533016 87.93701744 -21.64453125 87.98046875 C-34.47850102 87.65229279 -45.38379811 83.8691713 -55.55859375 75.87890625 C-55.55859375 75.21890625 -55.55859375 74.55890625 -55.55859375 73.87890625 C-56.14640625 73.64171875 -56.73421875 73.40453125 -57.33984375 73.16015625 C-64.91609384 68.78513859 -68.81804442 58.0513283 -71.08911133 49.99755859 C-73.94633261 37.10366039 -71.68448111 23.17154634 -64.74609375 12.06640625 C-49.51015685 -9.0500677 -21.92964747 -14.94210688 0 0 Z " fill="#3EB7FE" transform="translate(168.55859375,77.12109375)"/>
<path d="M0 0 C7.52352165 5.79010226 13.09685125 14.36999153 14.44140625 23.87890625 C15.12836422 36.29699257 14.63056955 45.98491446 6.38671875 55.8671875 C0.75708263 61.68899996 -5.53287643 64.19560214 -13.55859375 64.87890625 C-19.3174375 64.86976523 -24.30295979 64.13454021 -28.55859375 59.87890625 C-29.5911625 55.66258386 -29.5911625 55.66258386 -28.55859375 52.87890625 C-25.91094233 50.5047008 -23.14582287 48.60450646 -20.16015625 46.67578125 C-16.78838589 44.34693085 -15.73764706 42.5951195 -14.74609375 38.62890625 C-14.52240343 34.1550998 -15.38849043 31.77012599 -17.55859375 27.87890625 C-20.53777621 24.79699336 -23.32277054 24.12328067 -27.55859375 23.87890625 C-32.01918555 24.36089554 -34.90755281 25.35524288 -38.43359375 28.19140625 C-42.26083745 33.03174387 -43.07868462 37.09758979 -42.93359375 43.19140625 C-41.81664136 51.19623171 -36.90572973 58.06637761 -30.55859375 62.87890625 C-21.90794444 68.11665849 -13.29357654 70.03504195 -3.3515625 71.31640625 C-0.55859375 71.87890625 -0.55859375 71.87890625 1.44140625 73.87890625 C1.87890625 77.25390625 1.87890625 77.25390625 1.44140625 80.87890625 C-4.64924275 86.91378007 -13.34533016 87.93701744 -21.64453125 87.98046875 C-34.47850102 87.65229279 -45.38379811 83.8691713 -55.55859375 75.87890625 C-55.55859375 75.21890625 -55.55859375 74.55890625 -55.55859375 73.87890625 C-56.14640625 73.64171875 -56.73421875 73.40453125 -57.33984375 73.16015625 C-64.91609384 68.78513859 -68.81804442 58.0513283 -71.08911133 49.99755859 C-73.94633261 37.10366039 -71.68448111 23.17154634 -64.74609375 12.06640625 C-49.51015685 -9.0500677 -21.92964747 -14.94210688 0 0 Z M-60.01953125 13.79296875 C-67.63601645 24.11581925 -68.16580178 36.47054493 -66.55859375 48.87890625 C-63.51760892 60.42614235 -55.60994036 70.4729668 -45.5703125 76.74609375 C-35.21047396 82.24852388 -24.01522478 84.99046357 -12.3828125 82.0859375 C-8.36243651 80.72673324 -8.36243651 80.72673324 -4.55859375 78.87890625 C-4.06359375 77.39390625 -4.06359375 77.39390625 -3.55859375 75.87890625 C-4.75742188 75.85763672 -4.75742188 75.85763672 -5.98046875 75.8359375 C-18.40059019 75.29656603 -29.19066945 71.21151628 -38.55859375 62.87890625 C-40.96485536 60.05549146 -42.82669866 57.1540742 -44.55859375 53.87890625 C-44.89761719 53.25371094 -45.23664063 52.62851563 -45.5859375 51.984375 C-48.3366702 45.96318592 -48.42406152 39.3577818 -47.55859375 32.87890625 C-45.55529886 27.66044671 -42.22639355 23.94982717 -37.55859375 20.87890625 C-31.08182189 18.7199823 -23.14907938 18.71765407 -16.93359375 21.50390625 C-12.30035025 26.13714975 -9.89790447 30.0307683 -9.46875 36.578125 C-9.65412261 41.32527581 -10.90615361 45.07994432 -14.14453125 48.60546875 C-17.35970284 51.45559902 -20.78171323 53.8187896 -24.55859375 55.87890625 C-22.83632879 59.12740602 -22.83632879 59.12740602 -19.55859375 59.87890625 C-12.03619693 60.53876562 -5.65739881 58.89250388 0.4921875 54.37109375 C6.86872272 48.49976582 9.52008188 42.44158037 10.01367188 33.78808594 C10.26602891 23.15637763 7.42949399 14.90723446 0.12890625 6.94140625 C-8.51472899 -0.89905935 -18.09707184 -3.66945851 -29.59765625 -3.5 C-42.20802165 -2.29368299 -52.05440583 4.30028503 -60.01953125 13.79296875 Z " fill="#26B1FC" transform="translate(168.55859375,77.12109375)"/>
<path d="M0 0 C12.74264582 10.57241396 21.98375512 22.65126792 27.9375 38.1875 C28.19644043 38.80995605 28.45538086 39.43241211 28.72216797 40.07373047 C31.22464759 46.61810732 31.38743032 52.73563102 31.3125 59.6875 C31.32410156 60.76386719 31.33570313 61.84023437 31.34765625 62.94921875 C31.29327437 77.83172563 31.29327437 77.83172563 26.9375 82.1875 C25.01171875 82.4609375 25.01171875 82.4609375 22.625 82.5625 C21.84511719 82.61148438 21.06523437 82.66046875 20.26171875 82.7109375 C17.9375 82.1875 17.9375 82.1875 15.87890625 80.3828125 C13.0681085 75.75659004 11.74431808 70.84789521 10.1875 65.6875 C3.94264841 46.08759768 -6.54881516 30.63982909 -25.1875 20.9375 C-26.4725316 20.33969206 -27.76411014 19.75571151 -29.0625 19.1875 C-29.66191406 18.91164062 -30.26132813 18.63578125 -30.87890625 18.3515625 C-47.32288109 11.41694263 -65.26735462 13.28021928 -81.62109375 19.09765625 C-90.90379468 22.91994487 -99.19767823 29.03536148 -107.0625 35.1875 C-103.64431722 27.05582307 -94.64115097 22.69652932 -87.125 18.875 C-86.49384277 18.54983398 -85.86268555 18.22466797 -85.21240234 17.88964844 C-75.72434908 13.25980537 -66.38042382 11.62385055 -55.875 11.6875 C-54.78364746 11.69249512 -53.69229492 11.69749023 -52.56787109 11.70263672 C-43.29326588 11.90125107 -35.53620884 13.49131146 -27.0625 17.1875 C-25.58136719 17.82171875 -25.58136719 17.82171875 -24.0703125 18.46875 C-6.66038684 26.95177327 5.49194644 43.83532958 11.84228516 61.73828125 C12.96623021 65.16532999 14.0355164 68.6025521 15.03540039 72.06787109 C16.23418219 76.53747945 16.23418219 76.53747945 18.9375 80.1875 C22.52093976 80.35427282 22.52093976 80.35427282 25.9375 80.1875 C31.57323779 62.17326671 29.21477511 44.96820528 20.9375 28.1875 C10.87569682 9.48624277 -6.49651402 -5.82699194 -26.9453125 -12.0625 C-53.8029816 -19.53286691 -82.64680535 -18.41739536 -107.75 -5.625 C-129.69531197 6.91129345 -147.58431388 26.90669644 -154.34375 51.62890625 C-161.41553634 79.75271693 -158.70766619 108.88667002 -144.20996094 134.30615234 C-130.97469713 156.00635296 -109.221368 171.83342785 -85.09375 179.46875 C-57.13909325 186.09717377 -28.73559514 182.78861718 -4.1875 167.6875 C-3.42695313 167.1821875 -2.66640625 166.676875 -1.8828125 166.15625 C-1.28210938 165.8365625 -0.68140625 165.516875 -0.0625 165.1875 C0.5975 165.5175 1.2575 165.8475 1.9375 166.1875 C-19.82825044 181.68735259 -47.36277924 188.91952105 -73.9609375 184.46484375 C-95.16756786 180.30306476 -113.28206011 170.77374444 -129.0625 156.1875 C-129.87203125 155.47078125 -130.6815625 154.7540625 -131.515625 154.015625 C-149.87509236 136.94003647 -160.13341841 110.14585225 -161.23046875 85.3984375 C-161.37854312 56.31663078 -151.84008498 29.97719859 -131.375 8.9375 C-124.9938158 2.63843236 -117.74830822 -2.24686247 -110.0625 -6.8125 C-109.07636719 -7.39902344 -108.09023437 -7.98554688 -107.07421875 -8.58984375 C-74.27696015 -26.41739925 -29.32222379 -22.67645178 0 0 Z " fill="#B6E8FE" transform="translate(198.0625,32.8125)"/>
<path d="M0 0 C7.76208502 0.39805564 13.69245715 5.31889179 18.8125 10.8125 C25.90063497 19.6149746 27.17392917 27.95530304 26.26611328 39.03369141 C25.24782686 46.55780046 20.90408106 51.98097023 15.10546875 56.59375 C9.30329721 60.46904082 3.9181441 61.68047319 -3 61 C-6 59.5 -6 59.5 -8 58 C-6.15703955 55.95226617 -4.38608199 54.59507535 -2.0625 53.0625 C2.04260893 50.2978348 4.40550805 48.44376616 6.3125 43.8125 C7.392322 37.82439619 7.09170819 33.14298274 4.3125 27.6875 C0.72951995 23.52349616 -1.63318133 21.25017442 -7.2890625 20.65234375 C-14.33378309 20.48178736 -20.1242743 20.47233704 -25.609375 25.46484375 C-31.20477794 32.68904549 -31.84974789 37.89405959 -31 47 C-30.08058131 50.59815745 -28.75243347 53.73226102 -27 57 C-26.66097656 57.63550781 -26.32195312 58.27101562 -25.97265625 58.92578125 C-20.23537856 68.13400985 -9.75217268 72.36388063 0 76 C0 76.33 0 76.66 0 77 C-9.28190572 76.58747086 -17.54190879 71.18753146 -24.21484375 64.98046875 C-31.14685254 57.2900345 -34.53532819 48.57752183 -34.25 38.234375 C-33.52071016 31.71634708 -31.09347451 27.18796793 -26 23 C-25.16855469 22.30003906 -25.16855469 22.30003906 -24.3203125 21.5859375 C-19.41467182 17.94232886 -15.09295082 17.23241829 -9.03515625 17.5234375 C-2.46107944 18.55566063 3.08953907 21.147974 7.125 26.5625 C10.24198381 32.43041614 10.01264112 39.01605665 8.40625 45.3359375 C6.23738883 50.577352 2.6182719 53.03563583 -2.171875 55.87109375 C-2.77515625 56.24363281 -3.3784375 56.61617187 -4 57 C-4 57.33 -4 57.66 -4 58 C3.50419017 58.41519085 9.97176577 58.3730395 15.9453125 53.37109375 C21.69534818 47.4165589 24.01327369 40.70395276 24.375 32.5 C24.00366827 23.72728776 21.06682139 16.35376564 15 10 C10.41993002 5.89469337 5.74162941 3.15311103 0 1 C0 0.67 0 0.34 0 0 Z " fill="#BAE9FE" transform="translate(152,76)"/>
<path d="M0 0 C1.32 0.33 2.64 0.66 4 1 C5.33038586 20.62319145 -7.4393524 40.37425252 -19.44140625 54.96875 C-24.772226 61.04204699 -30.51646729 66.18563209 -37 71 C-37.66 70.67 -38.32 70.34 -39 70 C-38.04480469 69.22398437 -37.08960938 68.44796875 -36.10546875 67.6484375 C-18.81788 53.32591039 -4.49240214 35.0927091 0.75 12.8125 C0.95981414 10.45209095 1.02529001 8.18972999 1.015625 5.82421875 C1.00789063 3.93123047 1.00789063 3.93123047 1 2 C0.24976563 2.82242188 -0.50046875 3.64484375 -1.2734375 4.4921875 C-3.9707605 7.44024881 -6.68513766 10.37196129 -9.41015625 13.29443359 C-10.78764681 14.7721899 -12.15992811 16.25479878 -13.53125 17.73828125 C-26.29991271 31.08153378 -42.99820103 41.42327145 -61 46 C-63.23046875 45.55859375 -63.23046875 45.55859375 -65 45 C-63.16888672 44.36384766 -63.16888672 44.36384766 -61.30078125 43.71484375 C-35.86520404 34.72401255 -17.17913324 20.67742947 0 0 Z " fill="#B6E7FE" transform="translate(239,127)"/>
<path d="M0 0 C-0.70125 0.32871094 -1.4025 0.65742187 -2.125 0.99609375 C-13.4386455 6.6682883 -19.71267206 14.10732512 -24 26 C-24.90466321 29.00967326 -24.90466321 29.00967326 -25 32 C-25.05027344 32.71285156 -25.10054688 33.42570312 -25.15234375 34.16015625 C-25.6595781 46.96275121 -21.43345653 58.10402666 -13 67.6875 C-5.06112856 75.19820759 5.72228012 79.14623929 16.4375 79.125 C18.38462891 79.12886719 18.38462891 79.12886719 20.37109375 79.1328125 C23.40111541 79.02191827 26.06498638 78.71254666 29 78 C26.03 77.01 26.03 77.01 23 76 C23 75.67 23 75.34 23 75 C27.29 75 31.58 75 36 75 C35 78 35 78 32.91796875 79.16796875 C20.91330361 83.65039737 9.10684519 83.10621145 -2.625 77.81640625 C-13.67349084 71.72247302 -22.51118376 62.35590397 -26.45654297 50.26171875 C-28.77676073 40.60561032 -28.82544103 27.96773728 -24.2578125 18.9921875 C-23.84273438 18.33476563 -23.42765625 17.67734375 -23 17 C-22.56429687 16.30132812 -22.12859375 15.60265625 -21.6796875 14.8828125 C-17.41728133 8.7104757 -8.19702443 -2.73234148 0 0 Z " fill="#C0EBFE" transform="translate(129,78)"/>
<path d="M0 0 C1.66289063 0.84884766 1.66289063 0.84884766 3.359375 1.71484375 C4.82280903 2.45594175 6.28635667 3.19681544 7.75 3.9375 C8.47960937 4.31068359 9.20921875 4.68386719 9.9609375 5.06835938 C10.66992188 5.42607422 11.37890625 5.78378906 12.109375 6.15234375 C12.75874023 6.48226318 13.40810547 6.81218262 14.07714844 7.15209961 C18.53114957 9.11613541 22.5905802 9.13460737 27.4375 9.125 C29.38462891 9.12886719 29.38462891 9.12886719 31.37109375 9.1328125 C34.40111541 9.02191827 37.06498638 8.71254666 40 8 C38.02 7.34 36.04 6.68 34 6 C34 5.67 34 5.34 34 5 C38.29 5 42.58 5 47 5 C46 8 46 8 43.91796875 9.16796875 C32.7354436 13.34341806 22.23393843 13.07136024 11 9 C7.460017 7.27937081 4.07220249 5.47321962 1 3 C0.67 2.01 0.34 1.02 0 0 Z " fill="#B2E6FE" transform="translate(118,148)"/>
<path d="M0 0 C0.33 0 0.66 0 1 0 C2.18079399 4.6575763 2.14836041 9.16808235 2.125 13.9375 C2.12886719 14.72318359 2.13273438 15.50886719 2.13671875 16.31835938 C2.12945647 20.65757175 1.86408587 24.72757542 1 29 C0.67 29 0.34 29 0 29 C-0.33 27.02 -0.66 25.04 -1 23 C-1.66 23 -2.32 23 -3 23 C-3 17.39 -3 11.78 -3 6 C-2.01 6 -1.02 6 0 6 C0 4.02 0 2.04 0 0 Z " fill="#1FAAFC" transform="translate(233,79)"/>
<path d="M0 0 C0.33 0 0.66 0 1 0 C1 2.64 1 5.28 1 8 C1.66 8 2.32 8 3 8 C3 5.36 3 2.72 3 0 C3.66 0.33 4.32 0.66 5 1 C5.02696365 2.79158489 5.04637917 4.58328473 5.0625 6.375 C5.07410156 7.37273437 5.08570313 8.37046875 5.09765625 9.3984375 C5 12 5 12 4 14 C2.68 14 1.36 14 0 14 C-0.33 14.99 -0.66 15.98 -1 17 C-1.33 16.34 -1.66 15.68 -2 15 C-1.67 14.01 -1.34 13.02 -1 12 C-0.77674186 9.94106379 -0.59294241 7.87766347 -0.4375 5.8125 C-0.35371094 4.72582031 -0.26992187 3.63914062 -0.18359375 2.51953125 C-0.12300781 1.68808594 -0.06242188 0.85664062 0 0 Z " fill="#31B7FB" transform="translate(178,105)"/>
<path d="M0 0 C2.68459392 2.68459392 2.32966548 4.19740198 2.375 7.9375 C2.40335937 8.99839844 2.43171875 10.05929688 2.4609375 11.15234375 C2 14 2 14 -0.0234375 15.87890625 C-1.00183594 16.43384766 -1.00183594 16.43384766 -2 17 C-2.96306898 14.11079306 -3.1955936 12.07752119 -3.25 9.0625 C-3.27578125 8.20785156 -3.3015625 7.35320312 -3.328125 6.47265625 C-2.93876562 3.53855522 -1.93350171 2.19299799 0 0 Z " fill="#38BCFB" transform="translate(100,106)"/>
<path d="M0 0 C0.88171875 0.04640625 1.7634375 0.0928125 2.671875 0.140625 C3.56390625 0.17671875 4.4559375 0.2128125 5.375 0.25 C6.38820312 0.31960937 6.38820312 0.31960937 7.421875 0.390625 C7.091875 1.050625 6.761875 1.710625 6.421875 2.390625 C9.391875 2.885625 9.391875 2.885625 12.421875 3.390625 C12.421875 3.720625 12.421875 4.050625 12.421875 4.390625 C6.151875 4.390625 -0.118125 4.390625 -6.578125 4.390625 C-2.578125 0.390625 -2.578125 0.390625 0 0 Z " fill="#1EA6FC" transform="translate(137.578125,47.609375)"/>
<path d="M0 0 C0.99 0.495 0.99 0.495 2 1 C2.99 0.67 3.98 0.34 5 0 C4.67 7.26 4.34 14.52 4 22 C3.67 22 3.34 22 3 22 C2.67 17.05 2.34 12.1 2 7 C1.01 7.495 1.01 7.495 0 8 C0 5.36 0 2.72 0 0 Z " fill="#1CA4FD" transform="translate(78,93)"/>
<path d="M0 0 C3.96 0.33 7.92 0.66 12 1 C12 1.33 12 1.66 12 2 C10.02 2.33 8.04 2.66 6 3 C6 3.66 6 4.32 6 5 C3.69 5 1.38 5 -1 5 C-0.67 3.35 -0.34 1.7 0 0 Z " fill="#1FA8FC" transform="translate(153,10)"/>
<path d="M0 0 C0.66 0 1.32 0 2 0 C2 1.98 2 3.96 2 6 C1.01 6 0.02 6 -1 6 C-1 10.95 -1 15.9 -1 21 C-1.33 21 -1.66 21 -2 21 C-2.05420701 18.43721301 -2.09377007 15.87558517 -2.125 13.3125 C-2.15013672 12.2306543 -2.15013672 12.2306543 -2.17578125 11.12695312 C-2.21391569 6.95123219 -1.8789919 3.7505862 0 0 Z " fill="#4BC4FC" transform="translate(231,79)"/>
<path d="M0 0 C0.66 0 1.32 0 2 0 C2 3.63 2 7.26 2 11 C1.34 11 0.68 11 0 11 C-1.49297212 8.01405576 -1.11755228 5.29146376 -1 2 C-0.67 1.34 -0.34 0.68 0 0 Z " fill="#2DBAFB" transform="translate(245,128)"/>
<path d="M0 0 C0.66 0.33 1.32 0.66 2 1 C1.34 2.32 0.68 3.64 0 5 C0.66 5.33 1.32 5.66 2 6 C1.67 7.65 1.34 9.3 1 11 C0.67 9.68 0.34 8.36 0 7 C-2.51083114 8.25541557 -2.87125446 9.50063488 -4 12 C-4.50423019 6.70558305 -3.18923033 4.18586481 0 0 Z " fill="#20AFFD" transform="translate(125,102)"/>
<path d="M0 0 C0.33 0.66 0.66 1.32 1 2 C1.99 1.67 2.98 1.34 4 1 C4 3.31 4 5.62 4 8 C1 8 1 8 -1 7 C-0.67 4.69 -0.34 2.38 0 0 Z " fill="#2BB8FB" transform="translate(229,100)"/>
<path d="M0 0 C2.475 0.99 2.475 0.99 5 2 C5 2.99 5 3.98 5 5 C5.66 5.33 6.32 5.66 7 6 C4.23723823 5.47731534 1.6739124 4.89130413 -1 4 C-0.67 2.68 -0.34 1.36 0 0 Z " fill="#20A7FC" transform="translate(102,212)"/>
<path d="M0 0 C-0.33 0.99 -0.66 1.98 -1 3 C-3.31 3 -5.62 3 -8 3 C-8 2.01 -8 1.02 -8 0 C-4.71303767 -0.79953138 -3.28976808 -1.09658936 0 0 Z " fill="#2CB7FA" transform="translate(141,160)"/>
<path d="M0 0 C0.33 0 0.66 0 1 0 C1.3125 3.3125 1.3125 3.3125 1 7 C-1.5 8.9375 -1.5 8.9375 -4 10 C-3.6875 8.0625 -3.6875 8.0625 -3 6 C-2.01 5.67 -1.02 5.34 0 5 C0 3.35 0 1.7 0 0 Z " fill="#21A6FD" transform="translate(169,151)"/>
<path d="M0 0 C0.66 0 1.32 0 2 0 C2.33 1.32 2.66 2.64 3 4 C2.34 4 1.68 4 1 4 C0.67 5.65 0.34 7.3 0 9 C-1.125 7.3125 -1.125 7.3125 -2 5 C-1.125 2.25 -1.125 2.25 0 0 Z " fill="#27B5FB" transform="translate(230,75)"/>
<path d="M0 0 C0.99 0.33 1.98 0.66 3 1 C1.25 4.875 1.25 4.875 -1 6 C-1.625 4.125 -1.625 4.125 -2 2 C-1.34 1.34 -0.68 0.68 0 0 Z " fill="#31B9FA" transform="translate(65,39)"/>
<path d="M0 0 C3 1 3 1 6 3 C3.36 3.66 0.72 4.32 -2 5 C-1.34 3.35 -0.68 1.7 0 0 Z " fill="#21A7FD" transform="translate(125,50)"/>
</svg>
